<?xml version="1.0" encoding="UTF-8" standalone="no"?>
<!-- Created with Inkscape (http://www.inkscape.org/) -->

<svg
   xmlns:dc="http://purl.org/dc/elements/1.1/"
   xmlns:cc="http://creativecommons.org/ns#"
   xmlns:rdf="http://www.w3.org/1999/02/22-rdf-syntax-ns#"
   xmlns:svg="http://www.w3.org/2000/svg"
   xmlns="http://www.w3.org/2000/svg"
   xmlns:sodipodi="http://sodipodi.sourceforge.net/DTD/sodipodi-0.dtd"
   xmlns:inkscape="http://www.inkscape.org/namespaces/inkscape"
   width="180"
   height="150"
   id="svg4800"
   version="1.1"
   inkscape:version="0.48.4 r9939"
   sodipodi:docname="small-balloons.svg"
   inkscape:export-filename="/home/sam/tmp/small-balloons.png"
   inkscape:export-xdpi="90"
   inkscape:export-ydpi="90">
  <defs
     id="defs4802" />
  <sodipodi:namedview
     id="base"
     pagecolor="#ffffff"
     bordercolor="#666666"
     borderopacity="1.0"
     inkscape:pageopacity="0.0"
     inkscape:pageshadow="2"
     inkscape:zoom="1.979899"
     inkscape:cx="136.16591"
     inkscape:cy="90.518635"
     inkscape:document-units="px"
     inkscape:current-layer="layer1"
     showgrid="true"
     inkscape:window-width="1366"
     inkscape:window-height="702"
     inkscape:window-x="0"
     inkscape:window-y="27"
     inkscape:window-maximized="1"
     inkscape:snap-bbox="true">
    <inkscape:grid
       type="xygrid"
       id="grid2995"
       empspacing="5"
       visible="true"
       enabled="true"
       snapvisiblegridlinesonly="true" />
  </sodipodi:namedview>
  <metadata
     id="metadata4805">
    <rdf:RDF>
      <cc:Work
         rdf:about="">
        <dc:format>image/svg+xml</dc:format>
        <dc:type
           rdf:resource="http://purl.org/dc/dcmitype/StillImage" />
        <dc:title />
      </cc:Work>
    </rdf:RDF>
  </metadata>
  <g
     inkscape:label="Layer 1"
     inkscape:groupmode="layer"
     id="layer1"
     transform="translate(0,-902.36218)">
    <g
       transform="matrix(-0.86497926,-0.0418031,-0.0418031,0.86497926,1470.8482,465.85881)"
       id="g13248"
       style="fill:#bebebe;fill-opacity:1;display:inline;enable-background:new">
      <g
         transform="matrix(0.22234969,0.03876506,-0.03876506,0.22234969,1196.4853,427.96283)"
         style="fill:#bebebe;fill-opacity:1"
         id="g13250"
         inkscape:export-filename="/tmp/foundation_back_balloons.png"
         inkscape:export-xdpi="90"
         inkscape:export-ydpi="90">
        <path
           transform="translate(817,157)"
           d="m 708,374.36218 c 0,46.94421 -38.0558,85 -85,85 -46.9442,0 -85,-38.05579 -85,-85 0,-46.9442 38.0558,-85 85,-85 46.9442,0 85,38.0558 85,85 z"
           sodipodi:ry="85"
           sodipodi:rx="85"
           sodipodi:cy="374.36218"
           sodipodi:cx="623"
           id="path13252"
           style="fill:#bebebe;fill-opacity:1;stroke:none"
           sodipodi:type="arc" />
        <path
           sodipodi:nodetypes="ccccccccccc"
           inkscape:connector-curvature="0"
           id="path13254"
           d="m 1469.2163,621.36218 -0.8981,23.22056 c 0.67,5.05064 0.44,10.10128 -0.586,15.15193 -8.6333,2.87482 -17.0892,3.97558 -25.4403,4.02805 -3.4549,-5.03993 -4.0627,-10.36456 -4.7685,-15.67939 l -7.7396,-25.44913 5.8597,0.5461 6.9961,24.0623 c 9.2676,-1.73376 11.2945,-1.60383 21.1264,-2.49106 l 0.742,-22.04828 z"
           style="fill:#bebebe;fill-opacity:1;stroke:none" />
        <path
           sodipodi:nodetypes="cccccc"
           inkscape:connector-curvature="0"
           id="path13256"
           d="m 1469.2456,622.20123 c -12.8741,3.17589 -25.7482,3.92213 -38.6223,2.43153 -6.0239,-6.83956 -13.4936,-10.71504 -22.4983,-14.52058 l 37.875,-11.25 42.5,2.375 c -11.9755,9.12898 -17.1552,13.07606 -19.2544,20.96405 z"
           style="fill:#bebebe;fill-opacity:1;stroke:none" />
      </g>
      <path
         sodipodi:type="arc"
         style="fill:#bebebe;fill-opacity:1;stroke:none"
         id="path13258"
         sodipodi:cx="1494.4702"
         sodipodi:cy="627.94342"
         sodipodi:rx="0.75130099"
         sodipodi:ry="1.7456698"
         d="m 1495.2215,627.94342 c 0,0.96411 -0.3364,1.74567 -0.7513,1.74567 -0.4149,0 -0.7513,-0.78156 -0.7513,-1.74567 0,-0.96411 0.3364,-1.74567 0.7513,-1.74567 0.4149,0 0.7513,0.78156 0.7513,1.74567 z"
         inkscape:export-filename="/tmp/foundation_back_balloons.png"
         inkscape:export-xdpi="90"
         inkscape:export-ydpi="90" />
    </g>
    <g
       transform="matrix(-1.0081958,-0.06691419,-0.06691419,1.0081958,1570.3358,514.28024)"
       id="g13260"
       style="fill:#bebebe;fill-opacity:1;display:inline;enable-background:new">
      <g
         transform="matrix(0.22234969,0.03876506,-0.03876506,0.22234969,1196.4853,427.96283)"
         style="fill:#bebebe;fill-opacity:1"
         id="g13262"
         inkscape:export-filename="/tmp/foundation_back_balloons.png"
         inkscape:export-xdpi="90"
         inkscape:export-ydpi="90">
        <path
           transform="translate(817,157)"
           d="m 708,374.36218 c 0,46.94421 -38.0558,85 -85,85 -46.9442,0 -85,-38.05579 -85,-85 0,-46.9442 38.0558,-85 85,-85 46.9442,0 85,38.0558 85,85 z"
           sodipodi:ry="85"
           sodipodi:rx="85"
           sodipodi:cy="374.36218"
           sodipodi:cx="623"
           id="path13264"
           style="fill:#bebebe;fill-opacity:1;stroke:none"
           sodipodi:type="arc" />
        <path
           sodipodi:nodetypes="ccccccccccc"
           inkscape:connector-curvature="0"
           id="path13266"
           d="m 1469.2163,621.36218 -0.8981,23.22056 c 0.67,5.05064 0.44,10.10128 -0.586,15.15193 -8.6333,2.87482 -17.0892,3.97558 -25.4403,4.02805 -3.4549,-5.03993 -4.0627,-10.36456 -4.7685,-15.67939 l -7.7396,-25.44913 5.1759,0.58934 6.9961,24.0623 c 9.2676,-1.73376 12.6621,-1.69031 22.494,-2.57754 l 0.742,-22.04828 z"
           style="fill:#bebebe;fill-opacity:1;stroke:none" />
        <path
           sodipodi:nodetypes="cccccc"
           inkscape:connector-curvature="0"
           id="path13268"
           d="m 1469.2456,622.20123 c -12.8741,3.17589 -25.7482,3.92213 -38.6223,2.43153 -6.0239,-6.83956 -13.4936,-10.71504 -22.4983,-14.52058 l 37.875,-11.25 42.5,2.375 c -11.9755,9.12898 -17.1552,13.07606 -19.2544,20.96405 z"
           style="fill:#bebebe;fill-opacity:1;stroke:none" />
      </g>
      <path
         sodipodi:type="arc"
         style="fill:#bebebe;fill-opacity:1;stroke:none"
         id="path13270"
         sodipodi:cx="1494.4702"
         sodipodi:cy="627.94342"
         sodipodi:rx="0.75130099"
         sodipodi:ry="1.7456698"
         d="m 1495.2215,627.94342 c 0,0.96411 -0.3364,1.74567 -0.7513,1.74567 -0.4149,0 -0.7513,-0.78156 -0.7513,-1.74567 0,-0.96411 0.3364,-1.74567 0.7513,-1.74567 0.4149,0 0.7513,0.78156 0.7513,1.74567 z"
         inkscape:export-filename="/tmp/foundation_back_balloons.png"
         inkscape:export-xdpi="90"
         inkscape:export-ydpi="90" />
    </g>
  </g>
</svg>
